
<svg version="1.0" xmlns="http://www.w3.org/2000/svg"
 width="900.000000pt" height="593.000000pt" viewBox="0 0 900.000000 593.000000"
 preserveAspectRatio="xMidYMid meet">

<g transform="translate(0.000000,593.000000) scale(0.100000,-0.100000)"
fill="#000000" stroke="none">
<path d="M4045 5513 c-492 -45 -945 -360 -1160 -808 -95 -198 -133 -365 -142
-612 l-6 -173 -318 0 -319 0 0 -480 0 -480 320 0 320 0 0 -800 0 -800 -320 0
-320 0 0 -480 0 -480 1120 0 1120 0 0 480 0 480 -320 0 -320 0 0 800 0 800
805 0 805 0 0 -800 0 -800 -325 0 -325 0 0 -480 0 -480 1120 0 1120 0 0 480 0
480 -320 0 -320 0 0 1280 0 1280 -1280 0 -1280 0 0 113 c0 183 34 272 144 383
131 130 183 144 544 144 l272 0 0 480 0 480 -287 -2 c-159 -1 -306 -3 -328 -5z"/>
<path d="M5666 5504 c-236 -57 -396 -294 -359 -534 40 -258 283 -440 538 -403
264 38 451 289 407 546 -48 280 -313 457 -586 391z"/>
</g>
</svg>
